<svg width="31" height="31" viewBox="0 0 31 31" fill="none" xmlns="http://www.w3.org/2000/svg">
<path opacity="0.9" fill-rule="evenodd" clip-rule="evenodd" d="M15.8464 8.52525C16.4282 8.52507 16.997 8.69746 17.4808 9.02055C17.9647 9.34364 18.3418 9.80292 18.5646 10.3404C18.7874 10.8778 18.8457 11.4693 18.7324 12.0399C18.619 12.6106 18.3389 13.1348 17.9276 13.5462C17.5162 13.9577 16.9921 14.2379 16.4215 14.3515C15.8509 14.4651 15.2595 14.4069 14.7219 14.1843C14.1844 13.9617 13.725 13.5847 13.4017 13.1009C13.0785 12.6172 12.9059 12.0485 12.9059 11.4667C12.9059 10.6867 13.2157 9.93872 13.7671 9.38712C14.3185 8.83553 15.0665 8.5255 15.8464 8.52525ZM6.23047 9.86149C12.636 8.16824 12.5906 -0.0593387 15.2971 0.000322832C17.8152 0.0543023 17.7395 6.80644 23.4168 7.45704L28.5515 8.15498C29.8552 8.37342 30.3871 8.97322 30.1472 9.95432C29.4502 11.5207 28.2816 12.3654 27.1906 13.5624C24.3193 16.7141 26.0182 19.0447 27.4444 22.6329C29.0228 26.6002 29.8119 28.5842 29.8119 28.5848C30.6927 31.7544 28.1594 31.2365 26.2853 30.2137C11.5385 22.1868 23.2605 17.7586 23.3155 14.2746C23.3316 13.2244 22.6166 13.2821 21.9963 13.9715C18.7698 17.5588 15.961 17.5967 11.3434 16.0341C10.0807 15.3908 9.37455 15.4738 9.22493 16.2832C9.22493 16.7718 9.96453 17.7024 11.4438 19.0749C16.6135 23.5373 6.62633 29.7866 4.9255 29.1313C3.05421 28.4096 5.92365 21.8393 6.35928 20.4453C7.03449 18.1403 5.98898 17.4556 4.20955 16.5985C-1.56531 13.8143 -1.86078 12.0008 6.23047 9.86149V9.86149Z" fill="white"/>
</svg>
