<svg width="48" height="48" viewBox="0 0 48 48" fill="none" xmlns="http://www.w3.org/2000/svg">
<path opacity="0.3" d="M10.0788 4.0725C23.9686 11.8249 28.9686 20.4852 25.0788 30.0533C15.1364 28.4712 10.1364 19.8109 10.0788 4.0725Z" fill="#463EFF"/>
<path opacity="0.3" d="M37.2963 4.0725C23.4065 11.8249 18.4065 20.4852 22.2963 30.0533C32.2387 28.4712 37.2387 19.8109 37.2963 4.0725Z" fill="#463EFF"/>
<path opacity="0.3" d="M23.8125 2C15.6599 15.6587 15.6599 25.6587 23.8125 32C31.6319 25.6587 31.6319 15.6587 23.8125 2Z" fill="#463EFF"/>
<path d="M12.5006 26H35.1246C35.4364 25.9999 35.7439 26.0728 36.0226 26.2128C36.3013 26.3527 36.5434 26.5559 36.7295 26.8061C36.9157 27.0563 37.0408 27.3465 37.0948 27.6537C37.1488 27.9608 37.1302 28.2763 37.0406 28.575L32.6686 43.149C32.4214 43.9731 31.9151 44.6956 31.2248 45.2092C30.5345 45.7228 29.697 46.0001 28.8366 46H18.7896C17.9293 45.9999 17.092 45.7225 16.4019 45.2089C15.7118 44.6954 15.2057 43.973 14.9586 43.149L10.5856 28.575C10.4959 28.2764 10.4773 27.961 10.5313 27.6539C10.5852 27.3469 10.7102 27.0567 10.8963 26.8065C11.0823 26.5563 11.3243 26.3531 11.6028 26.2131C11.8814 26.0731 12.1888 26.0001 12.5006 26Z" fill="#463EFF"/>
</svg>
