<svg width="702" height="787" viewBox="0 0 702 787" fill="none" xmlns="http://www.w3.org/2000/svg">
<g clip-path="url(#clip0)">
<g opacity="0.7">
<path opacity="0.3" d="M234 560.85C363.235 560.85 468 456.085 468 326.85C468 197.615 363.235 92.8501 234 92.8501C104.765 92.8501 0 197.615 0 326.85C0 456.085 104.765 560.85 234 560.85Z" fill="#8382BD"/>
</g>
<g opacity="0.7">
<path opacity="0.3" d="M468 560.85C597.235 560.85 702 456.085 702 326.85C702 197.615 597.235 92.8501 468 92.8501C338.765 92.8501 234 197.615 234 326.85C234 456.085 338.765 560.85 468 560.85Z" fill="#8382BD"/>
</g>
<g opacity="0.7">
<path opacity="0.3" d="M351 763.85C480.235 763.85 585 659.085 585 529.85C585 400.615 480.235 295.85 351 295.85C221.765 295.85 117 400.615 117 529.85C117 659.085 221.765 763.85 351 763.85Z" fill="#8382BD"/>
</g>
<path d="M29.1225 293.197C27.8287 298.736 30.7106 303.539 36.3462 304.893C41.9469 306.238 46.6706 303.375 48.0498 297.634C48.8236 294.414 48.3076 291.476 46.7497 289.176L43.9615 290.765C45.0336 292.466 45.358 294.507 44.8702 296.537C44.1637 299.477 41.8487 301.253 38.827 301.194L42.2079 287.122C35.6049 285.017 30.6952 286.652 29.1225 293.197ZM35.8698 300.557C32.9954 299.422 31.6448 296.876 32.3513 293.936C33.083 290.891 35.3826 289.333 38.4265 289.916L35.8698 300.557Z" fill="white"/>
<path d="M55.8876 270.447L43.9247 266.607C39.9068 265.342 36.6549 267.202 35.1341 271.894C34.0129 275.353 34.2011 277.457 34.8865 280.48L38.1479 279.758C37.5034 277.544 37.4753 275.529 38.0414 273.782C38.9739 270.906 40.8211 269.877 43.1155 270.621L43.6635 270.798L41.8762 276.312C40.4896 280.707 41.8025 283.895 45.1243 284.972C48.3434 286.015 51.5741 284.337 52.8507 280.399C53.7055 277.762 53.595 275.418 52.4072 273.595L54.6332 274.316L55.8876 270.447ZM50.0008 278.567C49.2903 280.759 47.7958 281.75 46.152 281.217C44.4054 280.651 44.109 279.231 44.9416 276.662L46.5401 271.731L48.2181 272.275C50.1378 273.124 50.911 275.759 50.0008 278.567Z" fill="white"/>
<path d="M48.645 250.103L46.3898 247.541C44.6006 248.673 42.9628 250.764 42.0456 252.994C40.6493 256.391 40.894 260.15 44.49 261.629C50.869 264.29 52.6711 254.132 56.3003 255.625C57.6321 256.172 57.6779 257.67 57.0071 259.302C56.2132 261.233 54.3677 263.354 52.3729 264.325L54.5419 266.812C56.8656 265.705 58.8675 263.297 59.9353 260.7C61.4001 257.138 61.0965 253.237 57.4673 251.745C51.0549 249.07 48.9454 259.218 45.6825 257.876C44.4172 257.356 44.3695 256.052 44.9856 254.554C45.629 252.989 47.036 251.271 48.645 250.103Z" fill="white"/>
<path d="M50.5679 234.622C48.0088 239.702 49.6817 245.047 54.8413 247.687C59.969 250.311 65.2333 248.637 67.9229 243.381C69.4316 240.433 69.6204 237.456 68.6465 234.855L65.563 235.744C66.2053 237.65 66.0412 239.709 65.09 241.568C63.7125 244.26 61.0449 245.443 58.1217 244.675L64.7144 231.791C58.7908 228.194 53.6347 228.629 50.5679 234.622ZM55.3969 243.361C52.8697 241.583 52.1551 238.791 53.5327 236.099C54.9595 233.31 57.5607 232.336 60.3824 233.619L55.3969 243.361Z" fill="white"/>
<path d="M68.5658 205.268C65.076 210.075 65.8615 215.672 70.5226 219.056C75.2128 222.461 80.8073 221.496 84.2971 216.689C87.7657 211.911 86.9511 206.293 82.2609 202.888C77.5998 199.504 72.0344 200.49 68.5658 205.268ZM71.4207 207.341C73.43 204.573 76.9154 204.123 79.8869 206.28C82.8875 208.459 83.5097 211.891 81.5004 214.659C79.47 217.455 76.0137 217.927 73.0131 215.748C70.0416 213.591 69.3903 210.137 71.4207 207.341Z" fill="white"/>
<path d="M79.8956 184.892C80.4619 184.24 81.3437 183.718 82.2978 183.497L80.9432 180.225C79.4613 180.559 78.1204 181.445 77.1059 182.614C74.9352 185.116 74.3923 188.982 77.7639 191.908L79.1778 193.135L77.5261 195.038L79.8645 197.067L81.5161 195.164L93.0991 205.215L95.7889 202.116L84.2059 192.064L87.4855 188.285L85.1471 186.256L81.8675 190.035L80.1545 188.549C78.795 187.369 78.9755 185.953 79.8956 184.892Z" fill="white"/>
<path d="M93.2952 176.639L110.794 186.941L114.065 184.265L108.871 170.281L121.549 178.141L124.848 175.442L118.16 156.295L114.917 158.949L120.627 173.62L107.405 165.095L104.106 167.794L109.872 182.42L96.5662 173.963L93.2952 176.639Z" fill="white"/>
<path d="M128.47 149.506C123.421 152.654 122.042 158.146 125.095 163.042C128.167 167.968 133.724 169.178 138.773 166.03C143.791 162.901 145.15 157.379 142.078 152.452C139.025 147.556 133.488 146.377 128.47 149.506ZM130.339 152.505C133.246 150.692 136.651 151.587 138.597 154.708C140.563 157.86 139.848 161.28 136.941 163.092C134.003 164.924 130.618 164.061 128.652 160.909C126.706 157.788 127.402 154.337 130.339 152.505Z" fill="white"/>
<path d="M147.54 143.646L145.823 140.249L142.138 142.112L150.756 159.158L154.441 157.295L149.937 148.388C148.751 145.326 149.91 142.206 153.435 140.665L151.653 137.14C148.962 138.501 147.527 140.756 147.54 143.646Z" fill="white"/>
<path d="M175.229 147.856L179.752 145.983L168.212 138.059L171.927 128.494L167.537 130.312L162.998 141.464L156.828 126.563L153.003 128.146L163.221 152.827L167.046 151.243L164.995 146.287L166.68 141.888L175.229 147.856Z" fill="white"/>
<path d="M175.856 118.856C174.562 119.298 173.91 120.623 174.375 121.986C174.828 123.315 176.153 123.966 177.448 123.524C178.743 123.083 179.394 121.758 178.941 120.429C178.476 119.066 177.151 118.415 175.856 118.856ZM176.482 127.049L182.664 145.176L186.548 143.851L180.366 125.724L176.482 127.049Z" fill="white"/>
<path d="M197.79 120.398C194.663 121.247 192.603 123 191.981 125.929L191.018 122.386L187.023 123.471L192.041 141.953L196.037 140.869L193.367 131.037C192.862 128.078 194.198 125.439 197.246 124.575C200.025 123.82 202.155 125.07 202.909 127.849L205.73 138.237L209.725 137.152L206.603 125.652C205.405 121.24 202.098 119.228 197.79 120.398Z" fill="white"/>
<path d="M224.004 114.836L224.592 117.871C222.89 116.077 220.512 115.33 217.626 115.927C212.658 116.926 210.005 121.175 211.031 126.467C212.077 131.864 216.175 134.877 221.256 133.892C224.078 133.345 225.976 131.805 226.849 129.513L227.308 131.877C227.937 135.122 226.012 137.655 222.449 138.346C220.155 138.791 218.177 138.406 216.16 137.442L214.999 140.706C217.593 141.813 220.347 142.231 223.275 141.664C229.167 140.521 232.356 136.389 231.309 130.991L228.026 114.057L224.004 114.836ZM221.451 130.559C218.206 131.189 215.553 129.214 214.861 125.834C214.247 122.475 216.004 119.645 219.215 119.023C222.39 118.407 225.071 120.34 225.728 123.727C226.384 127.114 224.627 129.944 221.451 130.559Z" fill="white"/>
<path d="M467.133 116.677C464.17 116.294 461.728 117.212 460.049 119.246L460.474 115.961L456.368 115.43L453.016 141.35L457.121 141.881L458.442 131.67C459.548 134.064 461.676 135.573 464.711 135.966C470.138 136.668 474.211 133.238 474.946 127.561C475.694 121.777 472.524 117.375 467.133 116.677ZM464.235 132.347C460.844 131.908 458.779 129.064 459.255 125.387C459.717 121.816 462.441 119.555 465.833 119.994C469.225 120.433 471.28 123.348 470.823 126.883C470.352 130.524 467.627 132.786 464.235 132.347Z" fill="white"/>
<path d="M484.608 123.649L485.333 119.909L481.276 119.123L477.637 137.892L481.694 138.678L483.596 128.871C484.536 125.722 487.366 123.964 491.099 124.908L491.852 121.027C488.888 120.452 486.371 121.355 484.608 123.649Z" fill="white"/>
<path d="M504.059 123.753C498.297 122.268 493.37 125.057 491.93 130.644C490.481 136.266 493.437 141.124 499.199 142.609C504.926 144.085 509.862 141.261 511.311 135.639C512.751 130.052 509.786 125.229 504.059 123.753ZM503.177 127.175C506.494 128.03 508.195 131.112 507.277 134.674C506.35 138.271 503.38 140.112 500.063 139.257C496.711 138.393 495.001 135.346 495.928 131.749C496.846 128.187 499.825 126.311 503.177 127.175Z" fill="white"/>
<path d="M542.793 136.791C539.534 135.537 536.644 135.929 534.351 138.48C534.558 135.435 532.982 133.016 529.79 131.787C526.834 130.649 524.135 130.845 521.922 132.887L523.254 129.426L519.424 127.952L512.545 145.826L516.375 147.3L519.776 138.464C520.979 135.339 523.765 133.712 526.895 134.8C529.516 135.809 530.461 138.063 529.414 140.784L525.547 150.83L529.411 152.317L532.812 143.481C534.014 140.356 536.767 138.716 539.864 139.792C542.484 140.8 543.463 143.067 542.416 145.789L538.55 155.834L542.413 157.321L546.693 146.2C548.336 141.934 546.892 138.369 542.793 136.791Z" fill="white"/>
<path d="M560.824 136.772C559.604 136.153 558.201 136.611 557.549 137.895C556.913 139.147 557.371 140.55 558.591 141.17C559.811 141.789 561.214 141.331 561.85 140.079C562.502 138.795 562.044 137.392 560.824 136.772ZM555.392 142.937L546.721 160.014L550.38 161.872L559.051 144.795L555.392 142.937Z" fill="white"/>
<path d="M572.174 157.739L575.029 155.869C574.161 153.938 572.324 152.02 570.246 150.797C567.081 148.934 563.325 148.644 561.352 151.994C557.814 157.932 567.615 161.154 565.624 164.535C564.893 165.776 563.404 165.609 561.884 164.714C560.084 163.655 558.245 161.528 557.567 159.416L554.797 161.211C555.565 163.668 557.665 165.99 560.084 167.415C563.404 169.37 567.308 169.621 569.299 166.24C572.855 160.271 563.108 156.746 564.898 153.706C565.592 152.527 566.89 152.664 568.286 153.486C569.744 154.345 571.245 155.981 572.174 157.739Z" fill="white"/>
<path d="M587.272 161.976C582.635 158.681 577.099 159.53 573.712 164.233C570.346 168.907 571.208 174.364 575.999 177.814C578.686 179.749 581.601 180.384 584.319 179.813L583.905 176.631C581.924 176.979 579.913 176.507 578.218 175.287C575.764 173.519 574.997 170.704 576.196 167.93L587.94 176.387C592.388 171.073 592.735 165.91 587.272 161.976ZM577.905 165.434C580.044 163.203 582.912 162.917 585.366 164.684C587.907 166.515 588.478 169.233 586.786 171.83L577.905 165.434Z" fill="white"/>
<path d="M613.454 184.616C609.296 180.399 603.663 180.257 599.573 184.289C595.458 188.346 595.494 194.007 599.652 198.224C603.785 202.416 609.444 202.532 613.559 198.475C617.649 194.443 617.587 188.808 613.454 184.616ZM610.949 187.086C613.343 189.514 613.217 193.015 610.61 195.586C607.977 198.181 604.5 198.233 602.106 195.805C599.686 193.351 599.787 189.874 602.42 187.279C605.027 184.708 608.53 184.632 610.949 187.086Z" fill="white"/>
<path d="M631.855 198.94C632.407 199.604 632.779 200.559 632.842 201.536L636.291 200.73C636.201 199.214 635.544 197.747 634.555 196.556C632.439 194.009 628.711 192.846 625.278 195.699L623.838 196.895L622.228 194.957L619.846 196.935L621.457 198.874L609.661 208.674L612.283 211.831L624.079 202.03L627.277 205.879L629.658 203.901L626.461 200.052L628.205 198.603C629.59 197.452 630.958 197.86 631.855 198.94Z" fill="white"/>
<path d="M646.296 212.867C645.543 211.732 644.103 211.439 642.907 212.231C641.742 213.004 641.45 214.444 642.202 215.58C642.955 216.715 644.395 217.007 645.561 216.235C646.756 215.443 647.048 214.003 646.296 212.867ZM638.564 215.54L622.667 226.073L624.925 229.48L640.821 218.946L638.564 215.54Z" fill="white"/>
<path d="M650.677 234.753C649.122 231.902 646.933 230.301 643.932 230.375L647.163 228.613L645.176 224.97L628.323 234.163L630.31 237.806L639.275 232.916C642.043 231.735 644.926 232.423 646.478 235.194C647.86 237.728 647.138 240.095 644.603 241.478L635.131 246.645L637.118 250.288L647.604 244.568C651.627 242.373 652.82 238.681 650.677 234.753Z" fill="white"/>
<path d="M647.081 262.111C646.137 261.308 645.51 260.601 645.161 259.811C644.638 258.625 644.893 257.686 646.704 256.887L655.103 253.181L657.385 258.352L660.217 257.102L657.935 251.931L662.744 249.809L661.087 246.055L656.279 248.176L655.189 245.706L652.356 246.956L653.446 249.426L644.356 253.437C640.766 255.022 640.254 257.963 641.416 260.598C642.07 262.08 643.171 263.325 644.605 264.345L647.081 262.111Z" fill="white"/>
<path d="M665.526 268.682C663.558 263.347 658.511 260.925 653.063 262.896C647.649 264.854 645.282 269.843 647.289 275.393C648.415 278.506 650.462 280.674 653.028 281.736L654.481 278.876C652.65 278.046 651.256 276.522 650.547 274.559C649.518 271.717 650.473 268.96 653.028 267.348L657.948 280.951C664.617 279.075 667.815 275.01 665.526 268.682ZM655.846 266.252C658.869 265.617 661.397 266.999 662.425 269.842C663.49 272.786 662.428 275.351 659.567 276.539L655.846 266.252Z" fill="white"/>
<path d="M673.622 295.201L670.619 296.006C672.298 294.171 672.879 291.732 672.077 288.878C670.722 283.964 666.271 281.601 661.033 283.005C655.69 284.437 652.957 288.763 654.305 293.791C655.054 296.585 656.733 298.381 659.095 299.095L656.756 299.722C653.543 300.583 650.865 298.831 649.92 295.304C649.311 293.034 649.558 291.021 650.382 288.929L647.025 287.995C646.097 290.677 645.872 293.469 646.649 296.367C648.212 302.199 652.585 305.107 657.927 303.675L674.689 299.182L673.622 295.201ZM657.663 293.752C656.802 290.539 658.596 287.738 661.939 286.804C665.266 285.95 668.23 287.514 669.082 290.691C669.924 293.834 668.175 296.661 664.822 297.56C661.47 298.458 658.506 296.895 657.663 293.752Z" fill="white"/>
<path d="M672.836 310.438L676.576 309.674L675.748 305.617L656.979 309.448L657.807 313.505L667.615 311.503C670.89 311.166 673.602 313.111 674.161 316.929L678.042 316.137C677.437 313.174 675.636 311.189 672.836 310.438Z" fill="white"/>
<path d="M686.823 320.898C686.604 319.543 685.403 318.677 683.978 318.907C682.588 319.132 681.721 320.332 681.94 321.687C682.159 323.041 683.36 323.908 684.75 323.683C686.175 323.452 687.042 322.252 686.823 320.898ZM678.618 320.139L659.658 323.203L660.314 327.266L679.275 324.202L678.618 320.139Z" fill="white"/>
<path d="M666.629 342.303C665.956 341.262 665.559 340.404 665.453 339.546C665.294 338.26 665.809 337.435 667.774 337.192L676.884 336.065L677.578 341.674L680.651 341.294L679.957 335.685L685.173 335.04L684.67 330.967L679.453 331.612L679.122 328.933L676.049 329.313L676.381 331.992L666.52 333.212C662.626 333.693 661.287 336.362 661.64 339.22C661.839 340.828 662.534 342.338 663.613 343.728L666.629 342.303Z" fill="white"/>
<path d="M660.84 355.195L683.317 362.165L682.986 358.025L668.051 353.857L682.102 346.973L681.759 342.689L663.528 352.118L662.037 351.585C660.545 351.052 659.78 350.099 659.679 348.839C659.61 347.975 659.841 347.232 660.417 346.28L657.071 344.772C656.062 346.194 655.667 347.602 655.806 349.33C656.036 352.21 657.721 354.249 660.84 355.195Z" fill="white"/>
<path d="M215.197 614.31C214.048 615.062 213.745 616.513 214.537 617.723C215.31 618.902 216.761 619.205 217.91 618.453C219.059 617.7 219.362 616.249 218.59 615.07C217.798 613.86 216.346 613.557 215.197 614.31ZM217.849 622.121L228.383 638.209L231.83 635.952L221.297 619.864L217.849 622.121Z" fill="white"/>
<path d="M236.784 610.36C233.966 611.98 232.412 614.206 232.554 617.208L230.718 614.013L227.116 616.083L236.692 632.746L240.294 630.676L235.2 621.812C233.956 619.069 234.581 616.168 237.319 614.553C239.825 613.113 242.21 613.783 243.65 616.289L249.032 625.654L252.634 623.584L246.676 613.217C244.39 609.239 240.668 608.128 236.784 610.36Z" fill="white"/>
<path d="M245.84 605.737L260.714 619.898L264.589 618.071L263.066 597.616L259.321 599.381L260.999 615.267L249.747 603.895L245.84 605.737Z" fill="white"/>
<path d="M273.468 593.479C268.157 595.518 265.801 600.598 267.844 606.022C269.874 611.413 274.896 613.714 280.421 611.633C283.521 610.466 285.662 608.389 286.691 605.809L283.811 604.394C283.005 606.236 281.498 607.65 279.544 608.386C276.714 609.452 273.945 608.533 272.298 605.999L285.841 600.898C283.876 594.252 279.767 591.106 273.468 593.479ZM271.164 603.194C270.49 600.179 271.839 597.632 274.669 596.566C277.6 595.462 280.18 596.49 281.406 599.337L271.164 603.194Z" fill="white"/>
<path d="M298.993 590.566L299.617 587.211C297.622 586.502 294.967 586.503 292.645 587.157C289.111 588.154 286.304 590.666 287.359 594.408C289.2 601.071 298.306 596.221 299.371 599.998C299.762 601.384 298.611 602.344 296.914 602.823C294.904 603.39 292.096 603.247 290.101 602.275L289.482 605.517C291.787 606.662 294.917 606.752 297.62 605.99C301.327 604.944 304.209 602.299 303.144 598.522C301.293 591.825 292.005 596.427 291.048 593.031C290.676 591.715 291.673 590.873 293.232 590.433C294.861 589.974 297.081 590.021 298.993 590.566Z" fill="white"/>
<path d="M317.095 596.822C316.108 597.573 315.283 598.034 314.436 598.206C313.166 598.463 312.304 598.014 311.91 596.073L310.087 587.076L315.626 585.953L315.011 582.919L309.471 584.042L308.427 578.891L304.405 579.706L305.449 584.857L302.803 585.394L303.418 588.428L306.064 587.892L308.038 597.63C308.818 601.475 311.582 602.605 314.404 602.033C315.992 601.711 317.444 600.902 318.747 599.72L317.095 596.822Z" fill="white"/>
<path d="M332.642 572.001C331.279 572.116 330.327 573.245 330.449 574.68C330.567 576.079 331.695 577.031 333.059 576.915C334.422 576.8 335.374 575.672 335.255 574.273C335.134 572.838 334.006 571.885 332.642 572.001ZM331.269 580.102L332.885 599.185L336.974 598.839L335.358 579.755L331.269 580.102Z" fill="white"/>
<path d="M353.899 579.042C350.659 579.033 348.208 580.179 346.833 582.839L346.843 579.167L342.703 579.156L342.652 598.308L346.792 598.319L346.819 588.131C347.115 585.144 349.101 582.953 352.269 582.925C355.149 582.933 356.872 584.701 356.865 587.581L356.836 598.345L360.976 598.356L361.008 586.44C361.02 581.868 358.363 579.053 353.899 579.042Z" fill="white"/>
<path d="M393.661 583.487L393.069 586.745C392.087 584.298 390.045 582.646 386.999 582.092C381.687 581.125 377.336 584.322 376.305 589.989C375.262 595.727 378.159 600.316 383.578 601.302C386.589 601.849 389.075 601.058 390.82 599.106L388.984 609.201L393.057 609.942L397.735 584.228L393.661 583.487ZM385.047 598.056C381.611 597.431 379.737 594.456 380.353 590.872C381.045 587.266 383.889 585.112 387.289 585.73C390.689 586.349 392.598 589.331 391.935 592.979C391.284 596.556 388.447 598.675 385.047 598.056Z" fill="white"/>
<path d="M418.178 589.808L415.443 598.863C414.472 602.077 411.865 603.967 408.664 603.075C406.003 602.272 404.89 600.087 405.726 597.323L408.847 586.989L404.873 585.789L401.417 597.228C400.091 601.617 401.8 605.075 406.016 606.349C409.033 607.222 411.693 606.781 413.71 604.6L412.624 608.194L416.599 609.395L422.153 591.009L418.178 589.808Z" fill="white"/>
<path d="M436.117 617.412L440.894 605.792C442.473 601.887 440.877 598.497 436.321 596.609C432.962 595.217 430.849 595.238 427.781 595.681L428.242 598.99C430.5 598.523 432.511 598.655 434.207 599.358C437.001 600.515 437.88 602.438 436.956 604.666L436.736 605.199L431.381 602.98C427.111 601.249 423.828 602.305 422.491 605.53C421.196 608.657 422.612 612.01 426.436 613.595C428.997 614.656 431.343 614.732 433.254 613.693L432.359 615.855L436.117 617.412ZM428.489 610.9C426.36 610.018 425.491 608.449 426.152 606.853C426.855 605.157 428.295 604.974 430.789 606.008L435.578 607.992L434.903 609.622C433.904 611.468 431.216 612.03 428.489 610.9Z" fill="white"/>
<path d="M452.752 595.856L440.959 619.823L444.673 621.651L456.467 597.684L452.752 595.856Z" fill="white"/>
<path d="M464.951 601.515C463.747 600.858 462.327 601.276 461.636 602.543C460.962 603.779 461.38 605.199 462.583 605.855C463.787 606.512 465.207 606.094 465.881 604.859C466.572 603.591 466.155 602.172 464.951 601.515ZM459.326 607.531L450.133 624.385L453.745 626.355L462.938 609.501L459.326 607.531Z" fill="white"/>
<path d="M469.483 630.573C468.248 630.46 467.328 630.243 466.588 629.798C465.477 629.13 465.145 628.216 466.165 626.519L470.896 618.652L475.74 621.565L477.335 618.911L472.491 615.999L475.2 611.494L471.683 609.38L468.974 613.884L466.66 612.492L465.065 615.146L467.379 616.537L462.258 625.052C460.236 628.415 461.512 631.114 463.98 632.598C465.368 633.433 466.985 633.818 468.745 633.825L469.483 630.573Z" fill="white"/>
<path d="M475.807 643.177L495.257 630.064L491.834 627.736L479.271 636.738L482.694 621.522L479.151 619.114L475.095 639.167L473.749 639.993C472.404 640.82 471.186 640.819 470.144 640.11C469.429 639.625 468.996 638.982 468.616 637.94L465.355 639.598C465.83 641.269 466.678 642.455 468.107 643.427C470.488 645.046 473.125 645.01 475.807 643.177Z" fill="white"/>
<path d="M489.623 644.351C488.581 643.58 487.222 643.783 486.408 644.883C485.573 646.012 485.755 647.4 486.797 648.171C487.838 648.942 489.219 648.71 490.054 647.581C490.868 646.481 490.665 645.122 489.623 644.351Z" fill="white"/>
<path d="M351.25 403.1V55.3501" stroke="white" stroke-width="2" stroke-miterlimit="10"/>
<path d="M253.008 10.3041C247.068 10.3041 243 14.2281 243 19.9881C243 25.7841 247.068 29.7441 253.008 29.7441C258.912 29.7441 262.98 25.7841 262.98 19.9881C262.98 14.2281 258.912 10.3041 253.008 10.3041ZM253.008 13.8321C256.428 13.8321 258.84 16.3881 258.84 20.0601C258.84 23.7681 256.428 26.2881 253.008 26.2881C249.552 26.2881 247.14 23.7681 247.14 20.0601C247.14 16.3881 249.552 13.8321 253.008 13.8321ZM280.548 10.4481V19.8801C280.548 23.2281 278.604 25.7841 275.292 25.8561C272.52 25.8561 270.828 24.0921 270.828 21.2121V10.4481H266.688V22.3641C266.688 26.9361 269.316 29.7441 273.708 29.7441C276.84 29.7081 279.252 28.5201 280.548 25.8561V29.6001H284.688V10.4481H280.548ZM294.96 14.2641V10.4481H290.82V29.6001H294.96V19.5921C295.284 16.3161 297.732 14.0481 301.584 14.2641V10.3041C298.56 10.3041 296.256 11.6721 294.96 14.2641ZM326.797 10.3041C323.809 10.3041 321.505 11.5281 320.101 13.7601V10.4481H315.961V36.5841H320.101V26.2881C321.505 28.5201 323.809 29.7441 326.869 29.7441C332.341 29.7441 335.941 25.8201 335.941 20.0961C335.941 14.2641 332.233 10.3041 326.797 10.3041ZM325.933 26.2161C322.513 26.2161 320.101 23.6601 320.101 19.9521C320.101 16.3521 322.513 13.7601 325.933 13.7601C329.353 13.7601 331.765 16.3881 331.765 19.9521C331.765 23.6241 329.353 26.2161 325.933 26.2161ZM344.389 14.2641V10.4481H340.249V29.6001H344.389V19.5921C344.713 16.3161 347.161 14.0481 351.013 14.2641V10.3041C347.989 10.3041 345.685 11.6721 344.389 14.2641ZM362.625 10.3041C356.685 10.3041 352.617 14.2281 352.617 19.9881C352.617 25.7841 356.685 29.7441 362.625 29.7441C368.529 29.7441 372.597 25.7841 372.597 19.9881C372.597 14.2281 368.529 10.3041 362.625 10.3041ZM362.625 13.8321C366.045 13.8321 368.457 16.3881 368.457 20.0601C368.457 23.7681 366.045 26.2881 362.625 26.2881C359.169 26.2881 356.757 23.7681 356.757 20.0601C356.757 16.3881 359.169 13.8321 362.625 13.8321ZM401.901 10.3041C398.409 10.3041 395.853 11.7081 394.629 14.9121C393.729 11.9961 391.389 10.3041 387.969 10.3041C384.801 10.3041 382.353 11.4561 381.021 14.1561V10.4481H376.917V29.6001H381.021V20.1321C381.021 16.7841 383.037 14.2641 386.349 14.1561C389.157 14.1561 390.849 15.9201 390.849 18.8361V29.6001H394.989V20.1321C394.989 16.7841 396.969 14.2641 400.245 14.1561C403.053 14.1561 404.781 15.9201 404.781 18.8361V29.6001H408.921V17.6841C408.921 13.1121 406.293 10.3041 401.901 10.3041ZM416.516 2.4921C415.148 2.4921 414.104 3.5361 414.104 4.9761C414.104 6.3801 415.148 7.4241 416.516 7.4241C417.884 7.4241 418.928 6.3801 418.928 4.9761C418.928 3.5361 417.884 2.4921 416.516 2.4921ZM414.464 10.4481V29.6001H418.568V10.4481H414.464ZM435.603 15.2721L437.115 12.2121C435.387 10.9881 432.831 10.2681 430.419 10.2681C426.747 10.2681 423.363 11.9241 423.363 15.8121C423.327 22.7241 433.407 20.5281 433.407 24.4521C433.407 25.8921 432.039 26.5041 430.275 26.5041C428.187 26.5041 425.523 25.6041 423.867 24.1281L422.391 27.0801C424.299 28.8081 427.287 29.7441 430.095 29.7441C433.947 29.7441 437.439 27.9801 437.439 24.0561C437.475 17.1081 427.287 19.0161 427.287 15.4881C427.287 14.1201 428.475 13.5801 430.095 13.5801C431.787 13.5801 433.911 14.2281 435.603 15.2721ZM449.489 10.3041C443.801 10.3401 439.805 14.2641 439.805 20.0601C439.805 25.8201 443.693 29.7441 449.597 29.7441C452.909 29.7441 455.645 28.5561 457.517 26.5041L455.321 24.1641C453.917 25.6041 452.009 26.3961 449.921 26.3961C446.897 26.3961 444.629 24.5601 443.981 21.6081H458.453C458.957 14.6961 456.221 10.3041 449.489 10.3041ZM443.909 18.5841C444.341 15.5241 446.501 13.6161 449.525 13.6161C452.657 13.6161 454.709 15.4881 454.853 18.5841H443.909Z" fill="white"/>
<circle cx="350.5" cy="402.5" r="13.5" fill="white"/>
</g>
<defs>
<clipPath id="clip0">
<rect width="702" height="786.95" fill="white"/>
</clipPath>
</defs>
</svg>
