<svg width="48" height="48" viewBox="0 0 48 48" fill="none" xmlns="http://www.w3.org/2000/svg">
<path d="M19 36.069H15.3793L17.9655 38.6552H21.5862L19 36.069ZM36.069 29V32.6207L38.6552 30.0345V26.4138L36.069 29ZM26.4138 9.34483L29 11.931H32.6207L30.0345 9.34483H26.4138V9.34483ZM9.34483 17.9655V21.5862L11.931 19V15.3793L9.34483 17.9655Z" fill="#606060"/>
<path opacity="0.6" d="M38.6552 11.069V26.4138L36.069 29V11.931H32.6207L30.0345 9.34483H36.931C37.8793 9.34483 38.6552 10.1207 38.6552 11.069Z" fill="#463EFF"/>
<path opacity="0.6" d="M38.6552 30.0345V36.931C38.6552 37.8793 37.8793 38.6552 36.931 38.6552H21.5862L19 36.069H36.069V32.6207L38.6552 30.0345Z" fill="#463EFF"/>
<path opacity="0.6" d="M17.9655 38.6552H11.069C10.1207 38.6552 9.34483 37.8793 9.34483 36.931V21.5862L11.931 19V36.069H15.3793L17.9655 38.6552Z" fill="#463EFF"/>
<path opacity="0.6" d="M29 11.931H11.931V15.3793L9.34483 17.9655V11.069C9.34483 10.1207 10.1207 9.34483 11.069 9.34483H26.4138L29 11.931Z" fill="#463EFF"/>
<path opacity="0.6" d="M26.4138 38.6552L24 41.069L11.931 29V32.6207L22.7931 43.4828C23.1379 43.8276 23.569 44 24 44C24.431 44 24.8621 43.8276 25.2069 43.4828L30.0345 38.6552H26.4138ZM43.4828 22.7931L38.6552 17.9655V21.5862L41.069 24L36.069 29L29 36.069H32.6207L43.4828 25.2069C44.1724 24.6034 44.1724 23.4828 43.4828 22.7931ZM36.069 19V15.3793L32.6207 11.931L25.2069 4.51724C24.8621 4.17241 24.431 4 24 4C23.569 4 23.1379 4.17241 22.7931 4.51724L17.9655 9.34483H21.5862L24 6.93103L29 11.931L36.069 19ZM15.3793 11.931L9.34483 17.9655L4.51724 22.7931C3.82759 23.4828 3.82759 24.6034 4.51724 25.2069L9.34483 30.0345V26.4138L6.93103 24L19 11.931H15.3793Z" fill="#463EFF"/>
<circle cx="23.8276" cy="23.8276" r="2.58621" fill="#463EFF"/>
</svg>
