<svg width="48" height="48" viewBox="0 0 48 48" fill="none" xmlns="http://www.w3.org/2000/svg">
<path opacity="0.3" d="M31.0451 44C23.7376 43.9949 17.8152 38.0725 17.8101 30.765C17.8101 30.3263 17.8101 29.9215 17.8776 29.4491C17.9611 28.5946 18.7228 27.9695 19.5773 28.053C20.4318 28.1366 21.0568 28.8982 20.9733 29.7527C20.9733 30.0817 20.9227 30.4191 20.9227 30.7649C20.9227 36.355 25.4541 40.8873 31.0442 40.8881C36.6343 40.889 41.1666 36.3567 41.1675 30.7667C41.1683 25.1766 36.6361 20.6443 31.046 20.6434C29.8119 20.6434 28.5879 20.8687 27.4348 21.309C26.5997 21.5224 25.7494 21.0196 25.536 20.1845C25.353 19.4709 25.6946 18.726 26.3551 18.3988C33.1801 15.7821 40.8343 19.1934 43.451 26.0183C46.0676 32.8433 42.6564 40.4976 35.8314 43.1142C34.3088 43.698 32.6917 43.9948 31.062 43.9915L31.0451 44Z" fill="#9600FF"/>
<path d="M30.2607 30.7228H5.35959C4.42751 30.7245 3.67087 29.9713 3.66833 29.04C3.66745 28.7625 3.73584 28.4883 3.86656 28.2428L16.3255 4.89396C16.7632 4.07148 17.7856 3.76023 18.6081 4.19887C18.9042 4.3566 19.1463 4.59867 19.3032 4.89396L31.7537 28.2429C32.1915 29.0654 31.8802 30.0869 31.0578 30.5247C30.8123 30.6553 30.5382 30.7237 30.2607 30.7228ZM8.16861 27.3487H27.4517L17.8102 9.27185L8.16861 27.3487Z" fill="#9600FF"/>
</svg>
