<svg xmlns="http://www.w3.org/2000/svg" width="48" height="48" viewBox="0 0 48 48">
  <g id="Logo_PFD" data-name="Logo PFD" transform="translate(-190 -160.095)">
    <circle id="Ellipse_1" data-name="Ellipse 1" cx="24" cy="24" r="24" transform="translate(190 160.095)" fill="#fff" opacity="0.1"/>
    <g id="Group_22" data-name="Group 22" transform="translate(197.64 168.171)" opacity="0.9">
      <path id="Path_118" data-name="Path 118" d="M399.739,900.756a3.106,3.106,0,1,1-3.105,3.106,3.106,3.106,0,0,1,3.105-3.106m-10.154,1.411c6.764-1.788,6.716-10.476,9.574-10.413,2.659.057,2.579,7.187,8.574,7.874l5.422.737q2.065.346,1.685,1.9c-.736,1.654-1.97,2.546-3.122,3.81-3.032,3.328-1.238,5.789.268,9.578q2.5,6.284,2.5,6.285c.93,3.347-1.745,2.8-3.724,1.72-15.572-8.476-3.194-13.152-3.136-16.831.017-1.109-.738-1.048-1.393-.32-3.407,3.788-6.373,3.828-11.249,2.178q-2-1.019-2.237.263,0,.774,2.343,2.948c5.459,4.712-5.087,11.311-6.883,10.619-1.976-.762,1.054-7.7,1.514-9.172.713-2.434-.391-3.157-2.27-4.062C381.353,906.341,381.041,904.426,389.585,902.167Z" transform="translate(-383.006 -891.754)" fill="#fff" fill-rule="evenodd"/>
    </g>
  </g>
</svg>
