<svg width="48" height="48" viewBox="0 0 48 48" fill="none" xmlns="http://www.w3.org/2000/svg">
<path opacity="0.6" fill-rule="evenodd" clip-rule="evenodd" d="M44 24C44 35.0457 35.0457 44 24 44C12.9543 44 4 35.0457 4 24C4 12.9543 12.9543 4 24 4C35.0457 4 44 12.9543 44 24ZM38.2857 24C38.2857 31.8897 31.8897 38.2856 24 38.2856C16.1102 38.2856 9.71434 31.8897 9.71434 24C9.71434 16.1102 16.1102 9.71434 24 9.71434C31.8897 9.71434 38.2857 16.1102 38.2857 24Z" fill="#FF4067"/>
<path fill-rule="evenodd" clip-rule="evenodd" d="M32.5714 24C32.5714 28.7339 28.7338 32.5714 24 32.5714C19.2661 32.5714 15.4285 28.7339 15.4285 24C15.4285 19.2661 19.2661 15.4286 24 15.4286C28.7338 15.4286 32.5714 19.2661 32.5714 24ZM26.8572 24C26.8572 25.578 25.578 26.8572 24 26.8572C22.422 26.8572 21.1428 25.578 21.1428 24C21.1428 22.422 22.422 21.1428 24 21.1428C25.578 21.1428 26.8572 22.422 26.8572 24Z" fill="#FF4067"/>
</svg>
